<svg id="6ab8ca63-7f74-4ceb-ae77-cc253fd10009" data-name="Layer 1" xmlns="http://www.w3.org/2000/svg" viewBox="0 0 400 100"><title>marca</title><path d="M13.33,95.33a4.27,4.27,0,0,1-1.43-3.39V8.28a4.48,4.48,0,0,1,4.64-4.64H45.46a27.24,27.24,0,0,1,12.91,3,23.67,23.67,0,0,1,9.16,8.38,22,22,0,0,1,3.39,12,19.67,19.67,0,0,1-3.39,11.31,22.46,22.46,0,0,1-9.1,7.73,24.5,24.5,0,0,1,13,8.16q4.75,5.88,4.76,14.81a27.4,27.4,0,0,1-3.69,14.22A25.88,25.88,0,0,1,62.3,93.07a30.67,30.67,0,0,1-14.82,3.51H17.14A5.59,5.59,0,0,1,13.33,95.33ZM45.46,42.44q7.26,0,11.84-4.11t4.58-11.25q0-6.9-4.52-10.71t-11.9-3.8H21.18V42.44Zm2,45.22q8.69,0,14.1-5.06T67,69.09Q67,61,61.58,56.18t-14.1-4.82H21.18v36.3Z"/><path d="M163.62,91.11a3.68,3.68,0,0,1-1.31,2.5A4.31,4.31,0,0,1,159.22,95a4.2,4.2,0,0,1-3-1.42L143,80.4l-2.38,2.5a56.25,56.25,0,0,1-13.21,10.82,28.62,28.62,0,0,1-14.28,3.69q-11.55,0-18.33-6.07T88.06,75.28a23.6,23.6,0,0,1,4.58-13.86q4.58-6.49,14.58-14.22l1.43-1.2-6.43-6.42Q94,31.36,94,21.61a17.79,17.79,0,0,1,2.74-9.7,19.3,19.3,0,0,1,7.43-6.84,23.44,23.44,0,0,1,21.3.12A19.41,19.41,0,0,1,133,12.33a19.07,19.07,0,0,1,2.74,10.11,21.42,21.42,0,0,1-3.69,11.84,50.9,50.9,0,0,1-10.83,11l-1.19,1,22.85,22.85L153,58.38a4.55,4.55,0,0,1,3.1-1.78,4.8,4.8,0,0,1,4,4.16,4.86,4.86,0,0,1-1.42,3L148.51,74.57l13.33,13.32A4.91,4.91,0,0,1,163.62,91.11ZM137.44,74.8,113.76,51.12l-2.38,1.79q-7.6,6.06-11.06,11.42a19.91,19.91,0,0,0-3.45,11,13.08,13.08,0,0,0,4.34,10.29q4.33,3.87,12.2,3.87a21,21,0,0,0,10.82-2.92,49.38,49.38,0,0,0,10.72-9ZM115,41.13l2.26-1.79q10.25-8.09,10.24-17a11.93,11.93,0,0,0-3.39-8.62q-3.39-3.51-9.34-3.51a12.42,12.42,0,0,0-8.81,3.33,10.53,10.53,0,0,0-3.57,8,15.31,15.31,0,0,0,1.49,6.78,24.38,24.38,0,0,0,4.58,6.31Z"/><path d="M239.42,92.65a3.52,3.52,0,0,1-1.3,2.86,5.33,5.33,0,0,1-3.45,1.07,4.44,4.44,0,0,1-2.38-.59,5.18,5.18,0,0,1-1.67-1.79l-21.42-34H189.56V91.94a4.64,4.64,0,1,1-9.28,0V8.28a4.48,4.48,0,0,1,4.64-4.64h22.26a32.3,32.3,0,0,1,15.47,3.63A26.82,26.82,0,0,1,233.3,17.45a28.74,28.74,0,0,1,3.86,14.87,26.66,26.66,0,0,1-18.32,25.94l19.51,31.18A6.34,6.34,0,0,1,239.42,92.65ZM207.18,51.24A23.5,23.5,0,0,0,218,48.8a18.39,18.39,0,0,0,7.49-6.72,18,18,0,0,0,2.68-9.76,19.63,19.63,0,0,0-2.68-10.23,18.34,18.34,0,0,0-7.44-7,23,23,0,0,0-10.82-2.49H189.56V51.24Z"/><path d="M264.94,24.56a1.1,1.1,0,0,1,.36.86,1.06,1.06,0,0,1-.36.82,1.32,1.32,0,0,1-.93.33h-8.53V48.71a1.2,1.2,0,0,1-.4.91,1.38,1.38,0,0,1-1,.38,1.44,1.44,0,0,1-1-.38,1.21,1.21,0,0,1-.41-.91V26.57h-8.5a1.32,1.32,0,0,1-.93-.33,1.06,1.06,0,0,1-.36-.82,1.1,1.1,0,0,1,.36-.86,1.32,1.32,0,0,1,.93-.33H264A1.32,1.32,0,0,1,264.94,24.56Z"/><path d="M281.54,32.3a1.12,1.12,0,0,1,.4.9V48.71a1.18,1.18,0,0,1-.4.93,1.41,1.41,0,0,1-1,.36,1.37,1.37,0,0,1-1-.36,1.23,1.23,0,0,1-.37-.93V47.59a8.3,8.3,0,0,1-2.87,1.91,9.4,9.4,0,0,1-3.66.7,10.26,10.26,0,0,1-4.57-1,7.39,7.39,0,0,1-3.17-2.89,8.56,8.56,0,0,1-1.15-4.54V33.2a1.17,1.17,0,0,1,.39-.89,1.4,1.4,0,0,1,1-.36,1.45,1.45,0,0,1,1,.36,1.17,1.17,0,0,1,.39.89v8.58a5.59,5.59,0,0,0,1.77,4.47,6.85,6.85,0,0,0,4.65,1.54,7.7,7.7,0,0,0,3.17-.63,5.45,5.45,0,0,0,2.24-1.73,4,4,0,0,0,.83-2.46V33.2a1.16,1.16,0,0,1,.37-.9,1.36,1.36,0,0,1,1-.35A1.4,1.4,0,0,1,281.54,32.3Z"/><path d="M299.63,32.11c.59.25.88.59.88,1a.71.71,0,0,1,0,.29,1,1,0,0,1-.44.63,1.83,1.83,0,0,1-.85.17c-.21,0-.58,0-1.11-.07-.19,0-.48,0-.86,0a7,7,0,0,0-4.39,1.32,4.12,4.12,0,0,0-1.7,3.43v9.87a1.19,1.19,0,0,1-.36.92,1.45,1.45,0,0,1-1,.33,1.42,1.42,0,0,1-1-.33,1.19,1.19,0,0,1-.36-.92V33.2a1.19,1.19,0,0,1,.36-.92,1.42,1.42,0,0,1,1-.33,1.45,1.45,0,0,1,1,.33,1.19,1.19,0,0,1,.36.92v1.45a7,7,0,0,1,2.65-2.14,8,8,0,0,1,3.48-.76A6.44,6.44,0,0,1,299.63,32.11Z"/><path d="M305.37,28a1.71,1.71,0,0,1-.56-1.29,1.59,1.59,0,0,1,.58-1.28,2.15,2.15,0,0,1,2.76,0,1.61,1.61,0,0,1,.57,1.28,1.69,1.69,0,0,1-.57,1.29,2,2,0,0,1-1.4.53A1.93,1.93,0,0,1,305.37,28Zm.41,21.65a1.21,1.21,0,0,1-.39-.93V33.24a1.21,1.21,0,0,1,.39-.93,1.43,1.43,0,0,1,1-.36,1.37,1.37,0,0,1,1,.36,1.24,1.24,0,0,1,.38.93V48.71a1.24,1.24,0,0,1-.38.93,1.37,1.37,0,0,1-1,.36A1.43,1.43,0,0,1,305.78,49.64Z"/><path d="M317.75,49.47a8.26,8.26,0,0,1-3.29-1.95,1.14,1.14,0,0,1-.36-.75,1.21,1.21,0,0,1,.57-1,1.57,1.57,0,0,1,.9-.3,1.38,1.38,0,0,1,1,.46,5.48,5.48,0,0,0,2.27,1.42,9.49,9.49,0,0,0,3.14.49,7.11,7.11,0,0,0,3.76-.79,2.47,2.47,0,0,0,1.3-2.08,2.31,2.31,0,0,0-1.26-2,10.72,10.72,0,0,0-4-1.18A11.81,11.81,0,0,1,316.59,40a3.82,3.82,0,0,1-1.74-3.15,4.2,4.2,0,0,1,2-3.73A9.1,9.1,0,0,1,322,31.78a10.41,10.41,0,0,1,4.12.75,7.07,7.07,0,0,1,2.83,2.06,1.45,1.45,0,0,1,.29.76,1,1,0,0,1-.57.89,1.25,1.25,0,0,1-.68.16,1.72,1.72,0,0,1-1.26-.49,6.31,6.31,0,0,0-4.8-1.85,5.93,5.93,0,0,0-3.16.74,2.12,2.12,0,0,0-.07,3.77,11,11,0,0,0,3.94,1.13,11.82,11.82,0,0,1,5.49,1.93,4.18,4.18,0,0,1,.66,6A6.41,6.41,0,0,1,326,49.5a11,11,0,0,1-4,.67A13.32,13.32,0,0,1,317.75,49.47Z"/><path d="M358.9,32.67a6.57,6.57,0,0,1,2.54,2.63,8.19,8.19,0,0,1,.92,3.94v9.51a1.17,1.17,0,0,1-.38.9,1.41,1.41,0,0,1-1,.35,1.47,1.47,0,0,1-1-.35,1.15,1.15,0,0,1-.4-.9V39.24a5.15,5.15,0,0,0-1.3-3.71,4.56,4.56,0,0,0-3.43-1.37,4.94,4.94,0,0,0-3.65,1.39,4.75,4.75,0,0,0-1.37,3.63v9.57a1.16,1.16,0,0,1-.37.9,1.42,1.42,0,0,1-1,.35,1.45,1.45,0,0,1-1-.35,1.12,1.12,0,0,1-.4-.9V39.24a5.11,5.11,0,0,0-1.31-3.71,4.52,4.52,0,0,0-3.42-1.37,5.14,5.14,0,0,0-3.66,1.35A4.59,4.59,0,0,0,337.26,39v9.77a1.17,1.17,0,0,1-.38.9,1.4,1.4,0,0,1-1,.35,1.48,1.48,0,0,1-1-.35,1.14,1.14,0,0,1-.39-.9V33.24a1.21,1.21,0,0,1,.39-.93,1.44,1.44,0,0,1,1-.36,1.36,1.36,0,0,1,1,.36,1.24,1.24,0,0,1,.38.93V34a6.92,6.92,0,0,1,2.38-1.63,8,8,0,0,1,6.55.25,6.49,6.49,0,0,1,2.51,2.31,7,7,0,0,1,2.7-2.31,8.33,8.33,0,0,1,3.75-.83A7.55,7.55,0,0,1,358.9,32.67Z"/><path d="M372.27,49a8.94,8.94,0,0,1-3.57-3.29,8.76,8.76,0,0,1-1.29-4.7,8.86,8.86,0,0,1,4.86-8,11.52,11.52,0,0,1,10.2,0,9.16,9.16,0,0,1,3.57,3.3,9.21,9.21,0,0,1,0,9.42A9,9,0,0,1,382.49,49a11.57,11.57,0,0,1-10.22,0Zm8.84-2a6.55,6.55,0,0,0,2.58-2.45,7.18,7.18,0,0,0,0-7.07A6.64,6.64,0,0,0,381.11,35a8.22,8.22,0,0,0-7.44,0,6.68,6.68,0,0,0-2.62,2.46,7.05,7.05,0,0,0,0,7.07A6.59,6.59,0,0,0,373.67,47a8.22,8.22,0,0,0,7.44,0Z"/><path d="M251.53,88.15a13.88,13.88,0,0,1-5.07-4.82,12.64,12.64,0,0,1,0-13.23,13.62,13.62,0,0,1,5.06-4.82,14.16,14.16,0,0,1,7-1.78,15,15,0,0,1,4.69.69,13.77,13.77,0,0,1,4.09,2.21.87.87,0,0,1,.39.76.8.8,0,0,1-.14.48.85.85,0,0,1-.39.31.58.58,0,0,1-.33.36,1.08,1.08,0,0,1-.53.14,1.36,1.36,0,0,1-.9-.3,9.07,9.07,0,0,0-3.05-1.68,12.66,12.66,0,0,0-3.83-.53,11.4,11.4,0,0,0-9.7,5.41,10,10,0,0,0-1.53,5.35,10.15,10.15,0,0,0,1.51,5.41A11,11,0,0,0,252.9,86a11.35,11.35,0,0,0,5.63,1.45,11.68,11.68,0,0,0,7.06-2.31,1.35,1.35,0,0,1,1.72.08,1.15,1.15,0,0,1,.39.91,1.26,1.26,0,0,1-.39.92,13.2,13.2,0,0,1-8.78,2.84A14.1,14.1,0,0,1,251.53,88.15Z"/><path d="M290.65,71.9a1.14,1.14,0,0,1,.39.9V88.31a1.21,1.21,0,0,1-.39.93,1.43,1.43,0,0,1-1,.36,1.37,1.37,0,0,1-1-.36,1.24,1.24,0,0,1-.38-.93V87.19a8.4,8.4,0,0,1-2.86,1.91,9.43,9.43,0,0,1-3.66.7,10.26,10.26,0,0,1-4.57-1A7.47,7.47,0,0,1,274,85.92a8.65,8.65,0,0,1-1.14-4.54V72.8a1.17,1.17,0,0,1,.39-.89,1.39,1.39,0,0,1,1-.36,1.43,1.43,0,0,1,1,.36,1.14,1.14,0,0,1,.4.89v8.58a5.59,5.59,0,0,0,1.77,4.47A6.8,6.8,0,0,0,282,87.39a7.75,7.75,0,0,0,3.18-.63A5.52,5.52,0,0,0,287.46,85a4,4,0,0,0,.82-2.46V72.8a1.17,1.17,0,0,1,.38-.9,1.36,1.36,0,0,1,1-.35A1.42,1.42,0,0,1,290.65,71.9Z"/><path d="M298.16,88a6.08,6.08,0,0,1-1.38-4.11V65.08a1.17,1.17,0,0,1,.39-.91,1.44,1.44,0,0,1,1-.34,1.4,1.4,0,0,1,1,.34,1.18,1.18,0,0,1,.37.91V83.89a3.9,3.9,0,0,0,.63,2.31,1.9,1.9,0,0,0,1.6.89h.89a1.11,1.11,0,0,1,.86.35,1.26,1.26,0,0,1,.33.91,1.08,1.08,0,0,1-.45.9,1.87,1.87,0,0,1-1.17.35h-.46A4.49,4.49,0,0,1,298.16,88Z"/><path d="M317.18,87.42a1.26,1.26,0,0,1,.36.93,1.11,1.11,0,0,1-.43.89,1.64,1.64,0,0,1-1.08.36h-.75a6.89,6.89,0,0,1-3.41-.84,6.11,6.11,0,0,1-2.34-2.28,6.23,6.23,0,0,1-.85-3.25V74.42h-2.33a1.29,1.29,0,0,1-.91-.31,1,1,0,0,1-.34-.78,1,1,0,0,1,.34-.81,1.29,1.29,0,0,1,.91-.31h2.33V67.09a1.23,1.23,0,0,1,.38-.92,1.37,1.37,0,0,1,1-.36,1.43,1.43,0,0,1,1,.36,1.2,1.2,0,0,1,.39.92v5.12h4.06a1.29,1.29,0,0,1,.91.31,1,1,0,0,1,.34.81,1,1,0,0,1-.34.78,1.29,1.29,0,0,1-.91.31h-4.06v8.81a3.68,3.68,0,0,0,3.84,3.83h1A1.26,1.26,0,0,1,317.18,87.42Z"/><path d="M339.45,71.9a1.14,1.14,0,0,1,.39.9V88.31a1.21,1.21,0,0,1-.39.93,1.45,1.45,0,0,1-1,.36,1.36,1.36,0,0,1-1-.36,1.2,1.2,0,0,1-.38-.93V87.19a8.44,8.44,0,0,1-2.87,1.91,9.36,9.36,0,0,1-3.66.7,10.29,10.29,0,0,1-4.57-1,7.39,7.39,0,0,1-3.17-2.89,8.56,8.56,0,0,1-1.15-4.54V72.8a1.14,1.14,0,0,1,.4-.89,1.36,1.36,0,0,1,1-.36,1.44,1.44,0,0,1,1,.36,1.17,1.17,0,0,1,.39.89v8.58a5.56,5.56,0,0,0,1.78,4.47,6.8,6.8,0,0,0,4.64,1.54,7.7,7.7,0,0,0,3.17-.63A5.45,5.45,0,0,0,336.25,85a4,4,0,0,0,.83-2.46V72.8a1.14,1.14,0,0,1,.38-.9,1.36,1.36,0,0,1,1-.35A1.45,1.45,0,0,1,339.45,71.9Z"/><path d="M357.53,71.71c.59.25.88.59.88,1a1,1,0,0,1,0,.29,1,1,0,0,1-.45.63,1.83,1.83,0,0,1-.85.17c-.21,0-.58,0-1.11-.07-.19,0-.48,0-.86,0a7,7,0,0,0-4.39,1.32,4.12,4.12,0,0,0-1.7,3.43v9.87a1.19,1.19,0,0,1-.36.92,1.45,1.45,0,0,1-1,.33,1.42,1.42,0,0,1-1-.33,1.19,1.19,0,0,1-.36-.92V72.8a1.19,1.19,0,0,1,.36-.92,1.42,1.42,0,0,1,1-.33,1.45,1.45,0,0,1,1,.33,1.19,1.19,0,0,1,.36.92v1.45a7,7,0,0,1,2.65-2.14,8,8,0,0,1,3.48-.76A6.4,6.4,0,0,1,357.53,71.71Z"/><path d="M374.85,72.59a9.15,9.15,0,0,1,3.58,3.31,8.69,8.69,0,0,1,1.31,4.69v7.76a1.17,1.17,0,0,1-.39.89,1.44,1.44,0,0,1-1,.36,1.47,1.47,0,0,1-1-.35,1.14,1.14,0,0,1-.39-.9v-2a8.87,8.87,0,0,1-3.19,2.49,10.66,10.66,0,0,1-9.2-.3,9.06,9.06,0,0,1-3.48-3.3,9.13,9.13,0,0,1,0-9.36,9.15,9.15,0,0,1,3.58-3.31,11.25,11.25,0,0,1,10.15,0Zm-1.38,14a6.63,6.63,0,0,0,3.55-6,6.64,6.64,0,0,0-.95-3.51,6.89,6.89,0,0,0-2.6-2.48,7.58,7.58,0,0,0-3.69-.91,7.66,7.66,0,0,0-3.71.91,6.73,6.73,0,0,0-2.62,2.48,6.73,6.73,0,0,0,2.62,9.48,7.66,7.66,0,0,0,3.71.9A7.58,7.58,0,0,0,373.47,86.56Z"/><path d="M385.78,88a6.08,6.08,0,0,1-1.38-4.11V65.08a1.17,1.17,0,0,1,.4-.91,1.57,1.57,0,0,1,1.95,0,1.19,1.19,0,0,1,.38.91V83.89a3.9,3.9,0,0,0,.63,2.31,1.88,1.88,0,0,0,1.59.89h.9a1.13,1.13,0,0,1,.86.35,1.29,1.29,0,0,1,.32.91,1.08,1.08,0,0,1-.45.9,1.84,1.84,0,0,1-1.16.35h-.47A4.49,4.49,0,0,1,385.78,88Z"/></svg>