<?xml version="1.0" encoding="utf-8"?>
<!-- Generator: Adobe Illustrator 22.0.0, SVG Export Plug-In . SVG Version: 6.00 Build 0)  -->
<svg version="1.1" id="Layer_1" xmlns="http://www.w3.org/2000/svg" xmlns:xlink="http://www.w3.org/1999/xlink" x="0px" y="0px"
	 viewBox="0 0 100 100" style="enable-background:new 0 0 100 100;" xml:space="preserve">
<g>
	<g>
		<path d="M36.4,66.6c8.9,4,18.5,3.8,27.2-0.8c1.7-0.9,0.2-3.5-1.5-2.6c-7.6,4.1-16.3,4.4-24.1,0.8C36.2,63.2,34.7,65.8,36.4,66.6
			L36.4,66.6z"/>
	</g>
</g>
<path d="M7.8,32.6c0,9.9,9.4,18,20.9,18c11.5,0,20.8-8,20.9-18H7.8z"/>
<path d="M50.5,32.6c0,9.9,9.4,18,20.9,18c11.5,0,20.8-8,20.9-18H50.5z"/>
</svg>
